# xmcd
#
# Track frame offsets: 
#        10368
#        28305
#        42998
#        60033
#        74858
#        105708
#        121413
#        136330
#        154178
#        170233
#        193900
#        208608
#
# Disc length: 3046 seconds
#
# Revision: 4
# Processed by: cddbd v1.5.2PL0 Copyright (c) Steve Scherf et al.
# Submitted via: ExactAudioCopy v0.99pb4
#
DISCID=c20b5c0c
DTITLE=Benoit, Tab - What I Live For
DYEAR=1994
DGENRE=Jazz
TTITLE0=Blues Come Walkin' In
TTITLE1=Who's Been Talkin'
TTITLE2=Cross The Line
TTITLE3=Time and Time Again
TTITLE4=Cherry Tree Blues
TTITLE5=Somehow
TTITLE6=She's My Number One
TTITLE7=Too Many Drivers at the Wheel
TTITLE8=Night Life
TTITLE9=Don't Cut Off Your Hair
TTITLE10=Wide Open
TTITLE11=What I Live For
EXTD=YEAR: 1994 ID3G: 8
EXTT0=
EXTT1=
EXTT2=
EXTT3=
EXTT4=
EXTT5=
EXTT6=
EXTT7=
EXTT8=
EXTT9=
EXTT10=
EXTT11=
PLAYORDER=
